Coordinates
version=1
nRows=51
nColumns=19
inDegrees=yes

Units are S.I. units (second, meters, Newtons, ...)
Angles are in degrees.

endheader
time	1_Force_X	1_Force_Y	1_Force_Z	1_Moment_X	1_Moment_Y	1_Moment_Z	1_COP_X	1_COP_Y	1_COP_Z	2_Force_X	2_Force_Y	2_Force_Z	2_Moment_X	2_Moment_Y	2_Moment_Z	2_COP_X	2_COP_Y	2_COP_Z
0.0075	51.995	-11.209	1.455	-0.384	0.000	0.482	-8.484	3.646	-1.468	-0.215	0.000	0.249	0.00000	3.17350	0.00000	0.00000	21.31651	0.00000
0.0100	52.083	-11.560	1.410	-0.377	0.000	0.482	-8.746	2.784	-1.601	-0.215	0.000	0.252	0.00000	3.06368	0.00000	0.00000	27.28243	0.00000
0.0125	52.611	-13.129	1.365	-0.374	0.000	0.474	-8.531	2.966	-0.768	-0.216	0.000	0.251	0.00000	3.72234	0.00000	0.00000	27.23217	0.00000
0.0150	52.173	-12.779	1.587	-0.372	0.000	0.476	-8.356	2.103	-1.076	-0.212	0.000	0.254	0.00000	3.41074	0.00000	0.00000	34.89209	0.00000
0.0175	52.306	-12.604	1.763	-0.376	0.000	0.475	-8.400	2.446	-1.032	-0.214	0.000	0.251	0.00000	3.53971	0.00000	0.00000	30.56753	0.00000
0.0200	52.344	-11.565	1.452	-0.374	0.000	0.473	-8.354	2.445	-1.338	-0.215	0.000	0.251	0.00000	3.92514	0.00000	0.00000	29.61742	0.00000
0.0225	52.392	-12.606	1.410	-0.375	0.000	0.479	-8.486	1.929	-1.167	-0.215	0.000	0.250	0.00000	3.25798	0.00000	0.00000	36.85231	0.00000
0.0250	52.174	-11.734	1.763	-0.379	0.000	0.480	-8.661	3.304	-1.209	-0.215	0.000	0.248	0.00000	3.21286	0.00000	0.00000	23.76484	0.00000
0.0275	51.957	-12.599	1.809	-0.381	0.000	0.478	-8.617	3.303	-1.294	-0.213	0.000	0.251	0.00000	3.27541	0.00000	0.00000	23.96675	0.00000
0.0300	52.129	-11.734	1.543	-0.380	0.000	0.482	-8.659	2.440	-1.603	-0.213	0.000	0.252	0.00000	3.06923	0.00000	0.00000	29.97269	0.00000
0.0325	52.127	-12.607	1.365	-0.375	0.000	0.471	-8.573	1.760	-1.123	-0.213	0.000	0.252	0.00000	3.89138	0.00000	0.00000	40.93263	0.00000
0.0350	52.082	-13.302	1.279	-0.372	0.000	0.470	-8.444	2.105	-0.813	-0.215	0.000	0.253	0.00000	3.86668	0.00000	0.00000	36.02159	0.00000
0.0375	52.214	-12.261	1.541	-0.371	0.000	0.473	-8.400	2.275	-0.989	-0.215	0.000	0.252	0.00000	3.79388	0.00000	0.00000	32.67095	0.00000
0.0400	52.126	-11.911	1.453	-0.378	0.000	0.469	-8.574	1.417	-0.991	-0.213	0.000	0.254	0.00000	4.14443	0.00000	0.00000	50.81866	0.00000
0.0425	52.307	-12.952	1.763	-0.376	0.000	0.472	-8.358	1.589	-0.771	-0.212	0.000	0.254	0.00000	3.79598	0.00000	0.00000	45.69164	0.00000
0.0450	52.126	-11.561	1.674	-0.375	0.000	0.476	-8.617	2.789	-1.207	-0.214	0.000	0.251	0.00000	3.62686	0.00000	0.00000	27.68418	0.00000
0.0475	51.822	-11.551	1.810	-0.384	0.000	0.483	-8.659	3.302	-1.424	-0.216	0.000	0.251	0.00000	2.96189	0.00000	0.00000	23.92049	0.00000
0.0500	52.259	-12.433	1.586	-0.373	0.000	0.471	-8.313	2.104	-0.900	-0.214	0.000	0.253	0.00000	3.94103	0.00000	0.00000	35.19574	0.00000
0.0525	52.131	-12.598	1.722	-0.378	0.000	0.483	-8.790	2.959	-1.383	-0.215	0.000	0.250	0.00000	2.91599	0.00000	0.00000	26.36271	0.00000
0.0550	51.821	-11.033	1.631	-0.388	0.000	0.477	-8.572	2.614	-1.469	-0.214	0.000	0.253	0.00000	3.58063	0.00000	0.00000	28.75407	0.00000
0.0575	51.908	-11.208	1.676	-0.384	0.000	0.478	-8.748	2.614	-1.382	-0.213	0.000	0.254	0.00000	3.42270	0.00000	0.00000	29.70031	0.00000
0.0600	51.993	-11.907	1.632	-0.374	0.000	0.472	-8.357	1.243	-0.946	-0.214	0.000	0.255	0.00000	3.95062	0.00000	0.00000	56.34732	0.00000
0.0625	51.910	-11.553	1.765	-0.386	0.000	0.480	-8.702	2.959	-1.513	-0.215	0.000	0.251	0.00000	3.28179	0.00000	0.00000	25.99190	0.00000
0.0650	51.907	-11.207	1.543	-0.387	0.000	0.477	-8.747	2.786	-1.427	-0.215	0.000	0.251	0.00000	3.58102	0.00000	0.00000	27.55144	0.00000
0.0675	52.169	-12.607	1.454	-0.373	0.000	0.466	-8.532	1.762	-0.771	-0.214	0.000	0.254	0.00000	4.29805	0.00000	0.00000	42.79173	0.00000
0.0700	51.909	-13.293	1.856	-0.371	0.000	0.476	-8.530	2.278	-0.989	-0.214	0.000	0.253	0.00000	3.42319	0.00000	0.00000	33.40612	0.00000
0.0725	51.951	-11.906	1.676	-0.378	0.000	0.473	-8.573	1.760	-1.033	-0.215	0.000	0.254	0.00000	3.80063	0.00000	0.00000	42.15122	0.00000
0.0750	51.908	-12.771	1.943	-0.373	0.000	0.473	-8.661	1.759	-1.123	-0.214	0.000	0.252	0.00000	3.75935	0.00000	0.00000	41.45741	0.00000
0.0775	52.128	-13.127	1.675	-0.372	0.000	0.466	-8.444	1.932	-0.946	-0.214	0.000	0.253	0.00000	4.21310	0.00000	0.00000	38.07625	0.00000
0.0800	51.776	-10.854	1.942	-0.386	0.000	0.479	-8.966	2.272	-1.209	-0.214	0.000	0.254	0.00000	3.40943	0.00000	0.00000	34.77245	0.00000
0.0825	51.732	-10.853	1.855	-0.387	0.000	0.482	-8.749	2.274	-1.077	-0.213	0.000	0.254	0.00000	3.21751	0.00000	0.00000	34.18377	0.00000
0.0850	52.172	-12.949	1.765	-0.372	0.000	0.473	-8.749	1.417	-0.947	-0.214	0.000	0.255	0.00000	3.75075	0.00000	0.00000	52.63190	0.00000
0.0875	52.171	-12.598	1.854	-0.374	0.000	0.473	-8.748	1.073	-1.079	-0.213	0.000	0.256	0.00000	3.81159	0.00000	0.00000	67.26482	0.00000
0.0900	52.175	-13.295	1.854	-0.377	0.000	0.472	-8.575	1.762	-0.858	-0.214	0.000	0.254	0.00000	3.77858	0.00000	0.00000	42.60342	0.00000
0.0925	51.999	-12.947	1.898	-0.375	0.000	0.475	-8.707	2.106	-0.641	-0.215	0.000	0.252	0.00000	3.47581	0.00000	0.00000	37.26154	0.00000
0.0950	52.306	-12.773	2.074	-0.373	0.000	0.474	-8.707	1.934	-0.685	-0.214	0.000	0.252	0.00000	3.68634	0.00000	0.00000	39.89578	0.00000
0.0975	52.310	-13.816	2.030	-0.376	0.000	0.474	-8.663	2.106	-0.727	-0.214	0.000	0.254	0.00000	3.57338	0.00000	0.00000	37.27291	0.00000
0.1000	52.040	-11.899	1.900	-0.377	0.000	0.484	-8.791	2.614	-1.384	-0.215	0.000	0.251	0.00000	2.93601	0.00000	0.00000	29.28215	0.00000
0.1025	51.733	-10.855	1.854	-0.386	0.000	0.482	-8.924	2.618	-1.033	-0.213	0.000	0.253	0.00000	3.18567	0.00000	0.00000	30.93709	0.00000
0.1050	52.085	-11.377	2.119	-0.381	0.000	0.480	-8.880	3.307	-1.077	-0.213	0.000	0.250	0.00000	3.34105	0.00000	0.00000	24.95005	0.00000
0.1075	51.730	-10.510	1.941	-0.382	0.000	0.477	-8.968	2.789	-0.989	-0.214	0.000	0.254	0.00000	3.63157	0.00000	0.00000	29.76984	0.00000
0.1100	52.258	-11.559	1.984	-0.373	0.000	0.473	-8.793	2.107	-0.816	-0.214	0.000	0.252	0.00000	3.93389	0.00000	0.00000	37.10396	0.00000
0.1125	52.303	-12.601	1.809	-0.373	0.000	0.474	-8.619	0.902	-0.861	-0.212	0.000	0.256	0.00000	3.70940	0.00000	0.00000	79.06128	0.00000
0.1150	52.388	-11.910	1.895	-0.369	0.000	0.469	-8.796	1.934	-0.598	-0.214	0.000	0.253	0.00000	4.24992	0.00000	0.00000	40.73560	0.00000
0.1175	52.484	-13.121	2.162	-0.376	0.000	0.473	-8.839	2.449	-0.553	-0.215	0.000	0.252	0.00000	3.72805	0.00000	0.00000	33.55828	0.00000
0.1200	51.997	-11.724	1.899	-0.384	0.000	0.478	-9.012	2.620	-0.948	-0.212	0.000	0.251	0.00000	3.46737	0.00000	0.00000	30.94591	0.00000
0.1225	52.212	-10.685	1.852	-0.380	0.000	0.477	-9.098	2.445	-1.168	-0.214	0.000	0.251	0.00000	3.70456	0.00000	0.00000	32.52375	0.00000
0.1250	52.172	-11.902	1.986	-0.375	0.000	0.479	-8.968	2.445	-1.079	-0.214	0.000	0.252	0.00000	3.41100	0.00000	0.00000	32.52368	0.00000
0.1275	52.261	-11.034	1.984	-0.382	0.000	0.477	-8.882	2.272	-0.990	-0.212	0.000	0.254	0.00000	3.57601	0.00000	0.00000	35.00575	0.00000
0.1300	52.262	-10.684	2.028	-0.387	0.000	0.480	-9.100	3.306	-0.859	-0.215	0.000	0.251	0.00000	3.36067	0.00000	0.00000	26.03154	0.00000
0.1325	52.440	-12.948	2.294	-0.372	0.000	0.475	-8.884	1.936	-0.512	-0.212	0.000	0.253	0.00000	3.55830	0.00000	0.00000	41.32428	0.00000
